<?xml version="1.0" standalone="no"?>
<!DOCTYPE svg PUBLIC "-//W3C//DTD SVG 1.1//EN" "http://www.w3.org/Graphics/SVG/1.1/DTD/svg11.dtd" >
<svg xmlns="http://www.w3.org/2000/svg" xmlns:xlink="http://www.w3.org/1999/xlink" version="1.1">
<metadata>
Created by FontForge 20170731 at Sat Mar  5 15:48:41 2005
 By Aleksey,,,
Copyright 1993 DoubleAlex Team. All rights reserved.
</metadata>
<defs>
<font id="FavoritCondC" horiz-adv-x="411" >
  <font-face 
    font-family="FavoritCondC"
    font-weight="400"
    font-stretch="normal"
    units-per-em="1000"
    panose-1="0 0 5 0 0 0 0 0 0 0"
    ascent="785"
    descent="-215"
    x-height="505"
    cap-height="754"
    bbox="-55 -215 1000 995"
    underline-thickness="50"
    underline-position="-200"
    unicode-range="U+0020-2265"
  />
<missing-glyph horiz-adv-x="1000" 
 />
    <glyph glyph-name=".notdef" horiz-adv-x="1000" 
 />
    <glyph glyph-name=".null" horiz-adv-x="0" 
 />
    <glyph glyph-name="nonmarkingreturn" horiz-adv-x="333" 
 />
    <glyph glyph-name="space" unicode=" " horiz-adv-x="205" 
 />
    <glyph glyph-name="space" unicode="&#xa0;" horiz-adv-x="205" 
 />
    <glyph glyph-name="exclam" unicode="!" horiz-adv-x="252" 
d="M126 -8q-25 0 -42.5 17.5t-17.5 42.5t17.5 42.5t42.5 17.5t42.5 -17.5t17.5 -42.5t-17.5 -42.5t-42.5 -17.5zM77 754h100v-573h-100v573z" />
    <glyph glyph-name="quotedbl" unicode="&#x22;" horiz-adv-x="250" 
d="M29 528l-12 226h86l-12 -226h-62zM160 528l-12 226h86l-12 -226h-62z" />
    <glyph glyph-name="numbersign" unicode="#" 
d="M-12 0l80 258h-107l17 59h108l38 124h-109l17 59h109l79 254h55l-78 -254h88l77 254h56l-78 -254h111l-17 -59h-112l-38 -124h112l-15 -59h-115l-79 -258h-55l79 258h-87l-81 -258h-55zM142 317h87l38 124h-88z" />
    <glyph glyph-name="dollar" unicode="$" 
d="M182 819h45v-65q118 -8 146 -111l-77 -46q-6 32 -30 52.5t-58 20.5q-82 0 -82 -98q0 -14 1.5 -25.5t6.5 -22.5t8 -18.5t12.5 -17t13.5 -14t18 -14t18 -12.5t21 -13.5t21 -13.5q79 -49 107.5 -88.5t28.5 -121.5q0 -194 -155 -211v-67h-45v67q-59 5 -93.5 32t-53.5 82
l83 40q19 -70 85 -70q83 0 83 113q0 14 -1 25.5t-5 22t-6.5 18t-10 15.5t-11 12.5t-15 12.5t-16 11t-19 12t-19.5 12q-58 37 -86 61t-47.5 66t-19.5 102q0 77 38.5 128.5t113.5 58.5v65z" />
    <glyph glyph-name="percent" unicode="%" horiz-adv-x="553" 
d="M149 763q35 0 58 -16.5t33 -46.5t13 -56t3 -60t-3 -59.5t-13 -56t-33 -47t-58 -16.5t-58 16.5t-33 47t-13 56t-3 59.5t3 60t13 56t33 46.5t58 16.5zM149 465q7 0 13 3t10 9t7 12.5t5 16.5t3 17.5t1.5 18.5t0.5 16.5v15v10.5v10.5v15t-0.5 16.5t-1.5 18t-3 17t-5 16.5
t-7 13t-10 9.5t-13 3t-13 -3t-10 -9.5t-7 -13t-5 -16.5t-3 -17t-1.5 -18t-0.5 -16.5v-15v-10.5v-10.5v-15t0.5 -16.5t1.5 -18.5t3 -17.5t5 -16.5t7 -12.5t10 -9t13 -3zM432 754h62l-374 -754h-62zM403 349q35 0 58 -16.5t33 -46.5t13 -56t3 -60t-3 -59.5t-13 -56t-33 -47
t-58 -16.5t-58 16.5t-33 47t-13 56t-3 59.5t3 60t13 56t33 46.5t58 16.5zM403 289q-7 0 -13 -3t-10 -9t-7 -12.5t-5 -16.5t-3 -17t-1.5 -18.5t-0.5 -16.5v-14.5v-10.5v-10.5v-15t0.5 -17t1.5 -18.5t3 -17t5 -16.5t7 -13t10 -9.5t13 -3t13 3t10 9.5t7 13t5 16.5t3 17
t1.5 18.5t0.5 17v15v10.5v10.5v14.5t-0.5 16.5t-1.5 18.5t-3 17t-5 16.5t-7 12.5t-10 9t-13 3z" />
    <glyph glyph-name="ampersand" unicode="&#x26;" horiz-adv-x="494" 
d="M204 441q26 26 36 37.5t23 36.5t13 50q0 26 -14.5 43t-40.5 17q-25 0 -42 -20.5t-17 -45.5q0 -15 5 -33t8 -26t15.5 -33t13.5 -26zM282 128l-104 174q-57 -60 -57 -120q0 -42 24 -74t61 -32q45 0 76 52zM360 0l-36 59q-49 -69 -130 -69q-71 0 -120 56.5t-49 131.5
q0 97 105 202q-60 91 -60 177q0 63 40.5 103.5t103.5 40.5q64 0 104 -36t40 -100q0 -56 -29.5 -101.5t-82.5 -97.5l99 -164l62 88l64 -52l-80 -112l80 -126h-111z" />
    <glyph glyph-name="quotesingle" unicode="'" horiz-adv-x="250" 
d="M94 528l-12 226h86l-12 -226h-62z" />
    <glyph glyph-name="parenleft" unicode="(" horiz-adv-x="276" 
d="M130 764l93 -23q-87 -228 -87 -403q0 -203 87 -427l-93 -24q-89 219 -89 445q0 227 89 432z" />
    <glyph glyph-name="parenright" unicode=")" horiz-adv-x="276" 
d="M235 332q0 -226 -89 -445l-93 24q87 224 87 427q0 175 -87 403l93 23q89 -205 89 -432z" />
    <glyph glyph-name="asterisk" unicode="*" horiz-adv-x="357" 
d="M157 754h39v-133l111 70l21 -34l-116 -66l116 -64l-21 -34l-111 67l4 -129h-43l4 132l-109 -70l-23 34l113 64l-113 60l19 36l113 -66z" />
    <glyph glyph-name="plus" unicode="+" horiz-adv-x="500" 
d="M215 291v216h70v-216h172v-70h-172v-219h-70v219h-171v70h171z" />
    <glyph glyph-name="comma" unicode="," horiz-adv-x="205" 
d="M76 106l81 -25l-97 -265l-51 14z" />
    <glyph glyph-name="hyphen" unicode="-" horiz-adv-x="242" 
d="M32 297h178v-76h-178v76z" />
    <glyph glyph-name="hyphen" unicode="&#xad;" horiz-adv-x="242" 
d="M32 297h178v-76h-178v76z" />
    <glyph glyph-name="period" unicode="." horiz-adv-x="205" 
d="M103 -8q-25 0 -42.5 18t-17.5 43q0 24 17.5 41.5t42.5 17.5t42.5 -17.5t17.5 -41.5q0 -25 -17.5 -43t-42.5 -18z" />
    <glyph glyph-name="slash" unicode="/" horiz-adv-x="407" 
d="M358 830h79l-385 -933h-81z" />
    <glyph glyph-name="zero" unicode="0" 
d="M205 763q36 0 64 -15t45.5 -35.5t30 -56.5t18.5 -63.5t9 -72t3.5 -66t0.5 -61.5v-16v-16q0 -39 -0.5 -61.5t-3.5 -66t-9 -71.5t-18.5 -64t-30 -56.5t-45.5 -35.5t-64 -15t-64 15t-45.5 35.5t-30 56.5t-18.5 63.5t-9 72t-3.5 66t-0.5 61.5v16v16q0 39 0.5 61.5t3.5 66
t9 71.5t18.5 64t30 56.5t45.5 35.5t64 15zM278 377q0 46 -0.5 77t-3 69t-7.5 61.5t-12.5 45.5t-20 32.5t-29.5 10.5t-29.5 -10.5t-20 -32.5t-12.5 -45.5t-7.5 -61.5t-3 -69t-0.5 -77t0.5 -77t3 -69t7.5 -61.5t12.5 -45.5t20 -32.5t29.5 -10.5t29.5 10.5t20 32.5t12.5 45.5
t7.5 61.5t3 69t0.5 77z" />
    <glyph glyph-name="one" unicode="1" 
d="M83 754h172v-754h-98v667h-74v87z" />
    <glyph glyph-name="two" unicode="2" 
d="M208 763q90 0 129 -47t39 -139q0 -121 -130 -368l-64 -122h187v-87h-332l18 38l165 349q54 112 54 196q0 37 -15.5 63.5t-51.5 26.5q-14 0 -24.5 -6t-16.5 -18t-10 -22.5t-5.5 -28t-2 -26.5t0 -25.5t0.5 -17.5v-20h-102v27q0 52 5 87t20.5 70t49.5 52.5t86 17.5z" />
    <glyph glyph-name="three" unicode="3" 
d="M182 347h-29v90h12q62 0 82.5 25t20.5 90q0 23 -1 37.5t-6 37t-18 34.5t-33 12q-59 0 -59 -98v-23h-96v7q0 48 5 80.5t20 63t46.5 45.5t80.5 15q88 0 122.5 -51.5t34.5 -143.5q0 -33 -2.5 -55.5t-10 -50t-25.5 -45.5t-46 -27v-2q30 -8 49.5 -25t28.5 -43t12 -50t3 -56
q0 -223 -173 -223q-159 0 -159 175v23h96v-24q0 -36 15 -60t48 -24q20 0 34.5 10.5t21.5 24t10.5 36t4 35.5t0.5 35q0 58 -18.5 91.5t-70.5 33.5z" />
    <glyph glyph-name="four" unicode="4" 
d="M330 754v-473h48v-74h-48v-207h-98v207h-203v86l203 461h98zM232 281v320h-2l-122 -320h124z" />
    <glyph glyph-name="five" unicode="5" 
d="M121 754h240v-87h-163l-24 -190q98 4 147.5 -54t49.5 -158q0 -75 -18.5 -133.5t-68 -99.5t-125.5 -41q-50 0 -117 31l26 89q56 -30 88 -30q59 0 86 52.5t27 115.5q0 148 -131 148q-25 0 -61 -9z" />
    <glyph glyph-name="six" unicode="6" 
d="M196 754h108l-147 -322l2 -2q37 34 77 34q36 0 61.5 -16.5t39 -39.5t21 -58.5t9 -61.5t1.5 -61q0 -51 -5 -87t-20.5 -73t-49.5 -56.5t-87 -19.5q-43 0 -74 16t-47.5 39.5t-26.5 60t-12.5 67.5t-2.5 72q0 69 9 129t31 121.5t41 104.5t55 118l6 12t5 10.5t6 12.5zM266 226
v28t-1.5 30t-5 34t-10 27t-17 22t-25.5 7q-8 0 -12.5 -0.5t-15.5 -8t-17 -21t-11.5 -44t-5.5 -73.5q0 -146 62 -146q59 0 59 145z" />
    <glyph glyph-name="seven" unicode="7" 
d="M38 754h337l-229 -754h-108l210 667h-210v87z" />
    <glyph glyph-name="eight" unicode="8" 
d="M205 81q62 0 62 126q0 28 -1 43.5t-6 45t-19 44.5t-36 15q-15 0 -26 -7t-17.5 -23t-10 -26.5t-5 -34.5t-1.5 -29.5v-27.5q0 -126 60 -126zM132 408v2q-83 27 -83 168q0 87 33.5 136t116.5 49q90 0 126.5 -45t36.5 -140q0 -141 -82 -169v1v-2q89 -22 89 -182q0 -49 -6 -86
t-22 -73.5t-50 -56t-85 -19.5q-163 0 -163 221q0 37 2 60.5t9.5 55.5t27 52t50.5 28zM206 453q17 0 29 12.5t17 32.5t7 36.5t2 33.5q0 105 -55 105q-56 0 -56 -105q0 -24 3 -46.5t16.5 -45.5t36.5 -23z" />
    <glyph glyph-name="nine" unicode="9" 
d="M211 0h-109l150 315l-2 2q-31 -30 -76 -30q-130 0 -130 219q0 43 2 72.5t11 67.5t25.5 61t47.5 39.5t75 16.5q37 0 65 -10t45 -30.5t28.5 -43t16.5 -54.5t6.5 -57.5t1.5 -60.5q0 -115 -26.5 -205t-86.5 -212zM205 377q62 0 61 143v7q0 146 -61 146q-59 0 -59 -152
q0 -21 0.5 -33t3.5 -36t8.5 -38t17.5 -25.5t29 -11.5z" />
    <glyph glyph-name="colon" unicode=":" horiz-adv-x="205" 
d="M103 -8q-25 0 -42.5 18t-17.5 43q0 24 17.5 41.5t42.5 17.5t42.5 -17.5t17.5 -41.5q0 -25 -17.5 -43t-42.5 -18zM103 392q-25 0 -42.5 18t-17.5 43q0 24 17.5 41.5t42.5 17.5t42.5 -17.5t17.5 -41.5q0 -25 -17.5 -43t-42.5 -18z" />
    <glyph glyph-name="semicolon" unicode=";" horiz-adv-x="205" 
d="M77 106l81 -25l-96 -265l-52 14zM103 392q-25 0 -42.5 18t-17.5 43q0 24 17.5 41.5t42.5 17.5t42.5 -17.5t17.5 -41.5q0 -25 -17.5 -43t-42.5 -18z" />
    <glyph glyph-name="less" unicode="&#x3c;" horiz-adv-x="500" 
d="M44 222v64l413 232v-73l-335 -191l335 -191v-73z" />
    <glyph glyph-name="equal" unicode="=" horiz-adv-x="500" 
d="M457 384v-70h-413v70h413zM457 194v-70h-413v70h413z" />
    <glyph glyph-name="greater" unicode="&#x3e;" horiz-adv-x="500" 
d="M457 286v-64l-413 -232v73l335 191l-335 191v73z" />
    <glyph glyph-name="question" unicode="?" horiz-adv-x="341" 
d="M211 178h-88v227l23 -1q21 -1 35.5 6.5t22 17.5t11.5 29t4.5 32.5t0.5 37.5v14.5v19t-0.5 21.5t-1.5 23t-3.5 21.5t-6 20.5t-8.5 15.5t-12.5 11.5t-16.5 4q-15 0 -25 -7.5t-13.5 -23t-4 -25.5t-0.5 -29v-7v-18h-94v12q0 44 4 72t16.5 56t40.5 42t72 14q41 0 69.5 -13
t43.5 -32t23.5 -51.5t10.5 -60t2 -69.5q0 -31 -1 -50.5t-6.5 -51.5t-15.5 -51t-31 -33.5t-51 -13.5v-160zM166 -8q-25 0 -42.5 17.5t-17.5 42.5t17.5 42.5t42.5 17.5t42.5 -17.5t17.5 -42.5t-17.5 -42.5t-42.5 -17.5z" />
    <glyph glyph-name="at" unicode="@" horiz-adv-x="800" 
d="M334 211q47 0 87 50.5t59 110t19 102.5q0 30 -18.5 49.5t-49.5 19.5q-50 0 -91 -41t-61 -95t-20 -103q0 -40 19 -66.5t56 -26.5zM545 540l15 48h69l-104 -309q-13 -36 -13 -52q0 -13 8.5 -21.5t21.5 -8.5q53 0 109 70t56 178q0 118 -85 187.5t-206 69.5
q-139 0 -231.5 -95.5t-92.5 -233.5q0 -135 94.5 -228t231.5 -93q81 0 153 33.5t115 95.5h63q-48 -88 -139 -139.5t-192 -51.5q-109 0 -199 52.5t-141 142t-50 196.5q2 159 116 271t275 112q142 0 247 -92.5t105 -230.5q0 -63 -30 -130.5t-87.5 -117t-125.5 -49.5
q-29 0 -54.5 13.5t-33.5 39.5q-49 -51 -121 -51q-64 0 -103 44.5t-39 108.5q0 70 31 140t90.5 119.5t131.5 49.5q37 0 68.5 -17.5t46.5 -50.5z" />
    <glyph glyph-name="A" unicode="A" horiz-adv-x="414" 
d="M168 754h79l162 -754h-101l-28 147h-150l-28 -147h-98zM265 225l-58 383h-2l-60 -383h120z" />
    <glyph glyph-name="B" unicode="B" horiz-adv-x="418" 
d="M156 342v-257q62 -3 85.5 27.5t23.5 96.5q0 69 -22.5 101.5t-86.5 31.5zM181 0h-120v754h125q97 0 135.5 -50t38.5 -152q0 -42 -6.5 -72.5t-28.5 -57.5t-60 -37v-2q60 -19 83 -63t23 -114q0 -107 -44 -156.5t-146 -49.5zM262 556q0 113 -89 113h-17v-247q64 -3 85 31
t21 103z" />
    <glyph glyph-name="C" unicode="C" horiz-adv-x="369" 
d="M353 742v-91q-38 19 -64 19q-33 0 -58.5 -14.5t-40.5 -43t-24 -55.5t-12.5 -67t-4.5 -62t-1 -56q0 -288 145 -288q31 0 60 15v-88q-33 -21 -80 -21q-231 0 -231 375q0 399 224 399q49 0 87 -22z" />
    <glyph glyph-name="D" unicode="D" horiz-adv-x="466" 
d="M61 754h112q32 0 51.5 -1.5t49.5 -9t48.5 -22.5t40 -43.5t33.5 -69t20.5 -102.5t8.5 -142q0 -73 -7.5 -129.5t-19 -95t-33.5 -65t-43 -41t-56 -22t-63 -9.5t-73 -2h-69v754zM319 364v20v54t-3 54.5t-8.5 56.5t-17 48t-28 41t-42.5 23.5t-59 7.5v-584q33 -1 58.5 7.5
t42 20t28 35.5t17.5 42t8.5 52t3 52t0.5 55v5v5v5z" />
    <glyph glyph-name="E" unicode="E" horiz-adv-x="347" 
d="M61 754h269v-87h-169v-237h151v-87h-151v-256h169v-87h-269v754z" />
    <glyph glyph-name="F" unicode="F" horiz-adv-x="342" 
d="M61 754h271v-87h-171v-237h154v-87h-154v-343h-100v754z" />
    <glyph glyph-name="G" unicode="G" horiz-adv-x="460" 
d="M238 398h184v-12q0 -11 0.5 -45.5t0.5 -51.5t-1.5 -51.5t-4.5 -53.5t-9.5 -49t-15.5 -47.5t-22.5 -38.5t-31.5 -32t-42.5 -19t-53.5 -8q-44 0 -77 13t-54.5 40t-35.5 59t-21 79t-9.5 91t-2.5 103q0 60 2 103t8.5 91t20 80.5t34 60t52.5 41t74 13.5q78 0 121 -38t63 -116
l-95 -39q-5 23 -9.5 37.5t-13.5 30t-25 23.5t-38 8q-20 0 -35 -8.5t-24.5 -28t-15.5 -41.5t-8.5 -59.5t-3.5 -71t-1 -85.5q0 -94 7 -155.5t21 -89.5t27.5 -37.5t32.5 -9.5q15 0 25 2t23 12t20 28.5t12.5 55t5.5 88.5v41h-84v87z" />
    <glyph glyph-name="H" unicode="H" horiz-adv-x="473" 
d="M61 754h100v-294h151v294h100v-754h-100v373h-151v-373h-100v754z" />
    <glyph glyph-name="I" unicode="I" horiz-adv-x="222" 
d="M161 754v-754h-100v754h100z" />
    <glyph glyph-name="J" unicode="J" horiz-adv-x="303" 
d="M242 754v-567q0 -46 -5 -77t-19.5 -60.5t-45.5 -44.5t-78 -15q-50 0 -86 20v102q43 -26 66 -26q24 0 38.5 8.5t20.5 26.5t7.5 32t1.5 39v562h100z" />
    <glyph glyph-name="K" unicode="K" horiz-adv-x="424" 
d="M304 754h103l-148 -365l160 -389h-115l-143 388zM161 0h-100v754h100v-754z" />
    <glyph glyph-name="L" unicode="L" horiz-adv-x="331" 
d="M61 754h100v-667h168v-87h-268v754z" />
    <glyph glyph-name="M" unicode="M" horiz-adv-x="561" 
d="M86 754h86l107 -544h2l3 31l30 181l65 332h88l70 -754h-98l-18 281l-6 140l-2 99h-2l-17 -108l-78 -412h-69l-97 520h-2l-29 -520h-95z" />
    <glyph glyph-name="N" unicode="N" horiz-adv-x="473" 
d="M140 579l6 -49l15 -253v-277h-100v754h96l176 -573l2 2l-24 302v269h100v-754h-93l-176 581z" />
    <glyph glyph-name="O" unicode="O" horiz-adv-x="476" 
d="M238 764q40 0 72 -15t52 -37t34.5 -58.5t21.5 -66.5t11 -75t4.5 -70t0.5 -65t-0.5 -65t-4.5 -70t-11 -75t-21.5 -66.5t-34.5 -58.5t-52 -37t-72 -15t-72 15t-52 37t-34.5 58.5t-21.5 66.5t-11 75t-4.5 70t-0.5 65t0.5 65t4.5 70t11 75t21.5 66.5t34.5 58.5t52 37t72 15z
M238 670q-54 0 -72 -75.5t-18 -217.5t18 -217.5t72 -75.5t72 75.5t18 217.5t-18 217.5t-72 75.5z" />
    <glyph glyph-name="P" unicode="P" horiz-adv-x="388" 
d="M161 0h-100v754h120q33 0 54.5 -2t51 -13.5t47 -31.5t30.5 -59.5t13 -95.5q0 -117 -50.5 -169.5t-165.5 -48.5v-334zM175 669h-14v-250q62 -4 86 27t24 98q0 125 -96 125z" />
    <glyph glyph-name="Q" unicode="Q" horiz-adv-x="479" 
d="M457 -12l-65 -46l-53 79q-38 -31 -101 -31q-40 0 -72 15t-52 37t-34.5 58.5t-21.5 66.5t-11 75t-4.5 70t-0.5 65t0.5 65t4.5 70t11 75t21.5 66.5t34.5 58.5t52 37t72 15t72 -15t52 -37t34.5 -58.5t21.5 -66.5t11 -75t4.5 -70t0.5 -65q0 -202 -45 -295zM238 670
q-54 0 -72 -75.5t-18 -217.5t18 -217.5t72 -75.5q26 0 41 16l-63 91l61 48l38 -54h2q11 112 11 192q0 142 -18 217.5t-72 75.5z" />
    <glyph glyph-name="R" unicode="R" horiz-adv-x="416" 
d="M61 0v754h120q29 0 48 -1.5t48.5 -12t46.5 -29.5t30.5 -57.5t13.5 -92.5q0 -41 -8 -79t-32.5 -73t-63.5 -42l139 -367h-104l-136 369h-2v-369h-100zM161 420q101 -7 101 119q0 64 -16.5 97t-68.5 33h-16v-249z" />
    <glyph glyph-name="S" unicode="S" horiz-adv-x="354" 
d="M294 739l-1 -101q-44 32 -85 32q-40 0 -64.5 -28.5t-24.5 -68.5q0 -51 28 -82l76 -83q40 -44 58.5 -68t33.5 -64t15 -89q0 -83 -48 -140t-129 -57q-65 0 -110 36v101q53 -39 99 -39q44 0 66 30t22 75q0 35 -15.5 66.5t-39 54t-51 50.5t-51 54.5t-39 66.5t-15.5 86
q0 84 44 138.5t125 54.5q64 0 106 -25z" />
    <glyph glyph-name="T" unicode="T" horiz-adv-x="323" 
d="M-4 754h331v-87h-113v-667h-100v667h-118v87z" />
    <glyph glyph-name="U" unicode="U" horiz-adv-x="467" 
d="M61 754h100v-553q0 -68 18 -92.5t52 -24.5q47 0 61.5 26t14.5 80v564h100v-535q0 -30 -0.5 -45t-3.5 -43.5t-9 -44t-19 -37t-31 -32.5t-46 -19t-64 -8q-46 0 -79 13t-51 33t-28 54t-12.5 65.5t-2.5 78.5v520z" />
    <glyph glyph-name="V" unicode="V" horiz-adv-x="387" 
d="M7 754h100l86 -567h2l5 47l40 254l46 266h95l-148 -754h-80z" />
    <glyph glyph-name="W" unicode="W" horiz-adv-x="592" 
d="M2 754h98l71 -511l4 -56h2l30 253l52 314h78l82 -562h2l27 242l46 320h97l-132 -754h-80l-57 351l-23 190l-1 19h-2l-22 -203l-7 -43l-53 -314h-82z" />
    <glyph glyph-name="X" unicode="X" horiz-adv-x="427" 
d="M33 754h99l48 -134q32 -89 40 -138h2l27 104l53 168h102l-139 -371l139 -383h-102l-46 132q-35 102 -41 150h-2q-1 -31 -19 -87l-62 -195h-108l143 383z" />
    <glyph glyph-name="Y" unicode="Y" horiz-adv-x="392" 
d="M2 754h108l92 -349h2l16 97l64 252h107l-140 -429v-325h-100v325z" />
    <glyph glyph-name="Z" unicode="Z" horiz-adv-x="393" 
d="M42 754h333l-227 -667h215v-87h-348l229 667h-202v87z" />
    <glyph glyph-name="bracketleft" unicode="[" horiz-adv-x="300" 
d="M38 754h219v-68h-133v-721h133v-68h-219v857z" />
    <glyph glyph-name="backslash" unicode="\" horiz-adv-x="250" 
d="M223 0l-274 830h78l274 -830h-78zM223 0h78h-78z" />
    <glyph glyph-name="bracketright" unicode="]" horiz-adv-x="300" 
d="M43 754h219v-857h-219v68h133v721h-133v68z" />
    <glyph glyph-name="asciicircum" unicode="^" horiz-adv-x="500" 
d="M225 754h49l183 -417h-67l-141 324l-139 -324h-66z" />
    <glyph glyph-name="underscore" unicode="_" horiz-adv-x="500" 
d="M500 -187h-500v75h500v-75z" />
    <glyph glyph-name="grave" unicode="`" horiz-adv-x="280" 
d="M66 703l67 43l82 -149l-50 -29z" />
    <glyph glyph-name="a" unicode="a" horiz-adv-x="380" 
d="M187 76q60 0 59 170v7q0 125 -27 159q-13 17 -32 17q-11 0 -20.5 -4.5t-15.5 -13.5t-11 -18.5t-7.5 -24t-4.5 -25t-2.5 -27t-0.5 -24.5v-22.5v-16.5v-16.5v-23t0.5 -25t2.5 -27t4.5 -25t7.5 -24t11 -18.5t15.5 -13.5t20.5 -4.5zM243 0v65h-2q-16 -37 -36 -55t-57 -18
q-28 0 -49.5 13.5t-33.5 38.5t-20 50t-11 60t-4 55.5t-1 49.5q0 35 1 60t7.5 65t18.5 65t36.5 44.5t58.5 19.5q61 0 90 -64h2v56h94v-505h-94z" />
    <glyph glyph-name="b" unicode="b" horiz-adv-x="380" 
d="M43 0v830h94v-381h2q16 32 36 48t54 16t58.5 -19.5t36.5 -44.5t18.5 -65t7.5 -65t1 -60q0 -29 -1 -49.5t-4 -55.5t-11 -60t-20 -50t-33.5 -38.5t-49.5 -13.5q-37 0 -57 18t-36 55h-2v-65h-94zM193 76q11 0 20.5 4.5t15.5 13.5t11 18.5t7.5 24t4.5 25.5t2.5 27.5t0.5 24.5
v22.5v16.5v16.5v22.5t-0.5 24.5t-2.5 27t-4.5 25t-7.5 24t-11 18.5t-15.5 13.5t-20.5 4.5q-60 0 -59 -169v-7q0 -126 27 -160q13 -17 32 -17z" />
    <glyph glyph-name="c" unicode="c" horiz-adv-x="278" 
d="M254 496v-95h-2q-16 24 -44 24q-83 0 -83 -168q0 -177 81 -177q22 0 48 19v-87q-34 -20 -76 -20q-149 0 -149 256q0 31 1.5 56.5t6.5 58t15.5 57.5t26 47t41.5 34t59 12q40 0 75 -17z" />
    <glyph glyph-name="d" unicode="d" horiz-adv-x="380" 
d="M243 0v65h-2q-16 -37 -36 -55t-57 -18q-28 0 -49.5 13.5t-33.5 38.5t-20 50t-11 60t-4 55.5t-1 49.5q0 35 1 60t7.5 65t18.5 65t36.5 44.5t58.5 19.5t54 -16t36 -48h2v381h94v-830h-94zM187 76q60 0 59 170v7q0 125 -27 159q-13 17 -32 17q-11 0 -20.5 -4.5t-15.5 -13.5
t-11 -18.5t-7.5 -24t-4.5 -25t-2.5 -27t-0.5 -24.5v-22.5v-16.5v-16.5v-23t0.5 -25t2.5 -27t4.5 -25t7.5 -24t11 -18.5t15.5 -13.5t20.5 -4.5z" />
    <glyph glyph-name="e" unicode="e" horiz-adv-x="361" 
d="M125 301h112q0 128 -57 128q-20 0 -32 -11.5t-16.5 -34.5t-5.5 -37t-1 -38v-7zM333 234h-208q0 -158 59 -158t59 94h87q0 -77 -36 -127.5t-111 -50.5q-40 0 -70 17t-45.5 42t-24.5 62t-11.5 67.5t-2.5 68.5q0 31 1.5 56t6.5 57.5t15.5 57.5t26.5 47t42 34t59 12
q153 0 153 -264v-15z" />
    <glyph glyph-name="f" unicode="f" horiz-adv-x="249" 
d="M21 505h47v163q0 39 3 64t13.5 52t35 40.5t62.5 13.5q30 0 63 -14v-98q-22 12 -39 12q-21 0 -31.5 -13t-11.5 -25.5t-1 -35.5v-7v-152h78v-74h-78v-431h-94v431h-47v74z" />
    <glyph glyph-name="g" unicode="g" horiz-adv-x="382" 
d="M245 250q0 179 -61 179t-59 -165v-9q0 -106 17 -144q16 -35 45 -35q14 0 24.5 7t16.5 21t10 27t5.5 34t2 32t0 31t-0.5 22zM339 505v-509q0 -66 -9.5 -108.5t-30.5 -64.5t-47 -30t-67 -8q-69 0 -109 38t-40 108v14h91q-2 -31 12.5 -53.5t47.5 -22.5q10 0 18.5 2t14 7
t10 8.5t7 12.5t4.5 13t2.5 16t0.5 15.5v17v15.5v84h-2q-22 -69 -90 -68q-25 0 -44.5 10.5t-32.5 25.5t-22 39t-13.5 44.5t-7 49.5t-3 46.5t-0.5 41.5v41t2.5 46t6.5 51.5t13 46.5t21.5 42t32.5 26t45 11q35 0 55 -17t37 -51l2 2v58h95z" />
    <glyph glyph-name="h" unicode="h" horiz-adv-x="388" 
d="M44 830h94v-383h2q34 66 102 66q29 0 49.5 -10.5t30.5 -25t15.5 -40t6.5 -43t1 -47.5v-347h-94v349q0 80 -56 80q-20 0 -33 -9t-17.5 -28.5t-5.5 -32t-1 -35.5v-9v-315h-94v830z" />
    <glyph glyph-name="i" unicode="i" horiz-adv-x="180" 
d="M137 505v-505h-94v505h94zM91 595q-26 0 -44.5 18.5t-18.5 44.5t18.5 44t44.5 18q25 0 43.5 -18.5t18.5 -43.5q0 -26 -18.5 -44.5t-43.5 -18.5z" />
    <glyph glyph-name="j" unicode="j" horiz-adv-x="180" 
d="M137 505v-712h-94v712h94zM91 595q-26 1 -44.5 19t-18.5 44t18.5 44.5t44.5 17.5q25 0 43.5 -19t18.5 -44q0 -26 -18.5 -44t-43.5 -18z" />
    <glyph glyph-name="k" unicode="k" horiz-adv-x="395" 
d="M44 830h94v-549h2l117 224h105l-129 -224l146 -281h-109l-130 268h-2v-268h-94v830z" />
    <glyph glyph-name="l" unicode="l" horiz-adv-x="180" 
d="M137 830v-830h-94v830h94z" />
    <glyph glyph-name="m" unicode="m" horiz-adv-x="590" 
d="M138 505v-62h2q32 70 99 70q34 0 59 -18.5t32 -51.5h2q32 70 104 70q111 0 111 -122v-391h-94v354q0 35 -10 55t-41 20q-11 0 -19.5 -2t-15 -7t-11 -9t-7 -12.5t-4.5 -13.5t-2.5 -16.5t-0.5 -15.5v-16.5v-15.5v-321h-94v343q0 20 -1 31t-5.5 26t-16.5 22t-31 7
q-21 0 -33.5 -9.5t-17 -30t-5.5 -32t-1 -36.5v-321h-94v505h95z" />
    <glyph glyph-name="n" unicode="n" horiz-adv-x="388" 
d="M138 505v-58h2q34 66 102 66q29 0 49 -10.5t30.5 -25t16 -39.5t6.5 -43.5t1 -47.5v-347h-94v349q0 80 -56 80q-20 0 -33 -9t-17.5 -28.5t-5.5 -32t-1 -35.5v-9v-315h-94v505h94z" />
    <glyph glyph-name="o" unicode="o" horiz-adv-x="375" 
d="M188 -8q-41 0 -71.5 17.5t-47 42.5t-26 62.5t-12 68t-2.5 68.5q0 39 2.5 70t12 69t26 63t47 42.5t71.5 17.5t71.5 -17.5t47 -42.5t26 -63t12 -69t2.5 -70q0 -38 -2.5 -68.5t-12 -68t-26 -62.5t-47 -42.5t-71.5 -17.5zM188 78q12 0 21.5 4.5t15.5 13.5t11 18.5t8 24
t4.5 25.5t2 26.5t0.5 24v21.5v15v16.5v22t-0.5 24.5t-2 27t-4.5 25.5t-8 24t-11 18.5t-15.5 13.5t-21.5 4.5t-21.5 -4.5t-15.5 -13.5t-11 -18.5t-8 -24t-4.5 -25.5t-2 -27t-0.5 -24.5v-22v-16.5v-15v-21.5t0.5 -24t2 -26.5t4.5 -25.5t8 -24t11 -18.5t15.5 -13.5t21.5 -4.5z
" />
    <glyph glyph-name="p" unicode="p" horiz-adv-x="380" 
d="M193 76q39 0 50.5 46.5t11.5 129.5v16.5v22.5t-0.5 24.5t-2.5 27.5t-4.5 25.5t-7.5 24t-11 18.5t-15.5 13.5t-20.5 4.5q-60 0 -59 -170v-7q0 -125 27 -159q13 -17 32 -17zM137 505v-65h2q15 36 36 54.5t57 18.5q24 0 43.5 -11t31.5 -27t21 -41.5t13 -47t6.5 -51.5t3 -47
t0.5 -41q0 -35 -1 -60t-7.5 -65t-18.5 -65.5t-36.5 -45t-58.5 -19.5q-35 0 -55 16t-35 49h-2v-264h-94v712h94z" />
    <glyph glyph-name="q" unicode="q" horiz-adv-x="380" 
d="M187 76q60 0 59 169v7v7q1 170 -59 170q-11 0 -20.5 -4.5t-15.5 -13.5t-11 -18.5t-7.5 -24t-4.5 -25t-2.5 -27t-0.5 -25v-23v-16.5v-16.5v-22.5t0.5 -24.5t2.5 -27t4.5 -25t7.5 -24t11 -18.5t15.5 -13.5t20.5 -4.5zM337 505v-712h-94v264h-2q-15 -33 -35 -49t-55 -16
q-34 0 -58.5 19.5t-36.5 45t-18.5 65.5t-7.5 65t-1 60q0 24 0.5 41t3 47t6.5 51.5t13 47t21 41.5t31.5 27t43.5 11q37 0 57.5 -18.5t35.5 -54.5h2v65h94z" />
    <glyph glyph-name="r" unicode="r" horiz-adv-x="269" 
d="M138 505v-62h2q35 70 107 70v-93l-16 1q-50 3 -71 -24t-21 -79v-318h-95v505h94z" />
    <glyph glyph-name="s" unicode="s" horiz-adv-x="276" 
d="M234 491v-89q-30 27 -70 27q-27 0 -46 -14.5t-18 -39.5q0 -23 16.5 -42.5t39.5 -35.5t46.5 -34.5t39.5 -49.5t16 -71q0 -67 -39 -108.5t-106 -41.5q-42 0 -82 24v92q40 -32 78 -32q30 0 46.5 17t16.5 47q0 24 -16.5 44.5t-39.5 37t-46 35.5t-39.5 49t-16.5 69
q0 60 37.5 99t97.5 39q48 0 85 -22z" />
    <glyph glyph-name="t" unicode="t" horiz-adv-x="221" 
d="M63 648h94v-143h50v-74h-50v-431h-94v431h-51v74h51v143z" />
    <glyph glyph-name="u" unicode="u" horiz-adv-x="389" 
d="M44 505h94v-316v-15v-17.5t0.5 -16t2.5 -16.5t4.5 -14t7 -13.5t10.5 -9t14.5 -7.5t18.5 -2t18.5 2t14 6.5t10 8.5t7 12.5t4 13.5t2 15.5t0.5 15.5v17v15v321h94v-341q0 -84 -32.5 -128t-113.5 -44q-95 0 -125.5 47t-30.5 145v321z" />
    <glyph glyph-name="v" unicode="v" horiz-adv-x="358" 
d="M13 505h100l68 -382h2l3 30l37 204l31 148h91l-133 -505h-62z" />
    <glyph glyph-name="w" unicode="w" horiz-adv-x="487" 
d="M-3 505h99l54 -352v-10h2l22 157l39 205h67l57 -352v-10h2l26 188l33 174h92l-119 -505h-64l-51 259l-8 84l-2 28h-2l-22 -181l-37 -190h-65z" />
    <glyph glyph-name="x" unicode="x" horiz-adv-x="395" 
d="M14 505h110l71 -173l24 75l41 98h98l-114 -238l138 -267h-111l-50 109q-28 61 -33 96h-2q-3 -36 -34 -111l-40 -94h-98l126 267z" />
    <glyph glyph-name="y" unicode="y" horiz-adv-x="373" 
d="M4 505h105l74 -352h2l85 352h95l-206 -712h-99l78 248z" />
    <glyph glyph-name="z" unicode="z" horiz-adv-x="335" 
d="M27 505h294l-169 -421h160v-84h-298l175 421h-162v84z" />
    <glyph glyph-name="braceleft" unicode="{" horiz-adv-x="258" 
d="M2 301v52q90 11 90 81v188q0 73 34 102.5t98 29.5h31v-57q-44 -4 -61.5 -22.5t-17.5 -64.5v-159q0 -53 -19.5 -82.5t-74.5 -40.5v-2q55 -11 74.5 -40.5t19.5 -82.5v-159q0 -46 17.5 -64.5t61.5 -22.5v-57h-31q-64 0 -98 29.5t-34 102.5v188q0 70 -90 81z" />
    <glyph glyph-name="bar" unicode="|" horiz-adv-x="250" 
d="M90 0v830h70v-830h-70z" />
    <glyph glyph-name="braceright" unicode="}" horiz-adv-x="258" 
d="M3 -100v57q44 4 61.5 22.5t17.5 64.5v159q0 53 19.5 82.5t74.5 40.5v2q-55 11 -74.5 40.5t-19.5 82.5v159q0 46 -17.5 64.5t-61.5 22.5v57h31q64 0 98 -29.5t34 -102.5v-188q0 -70 90 -81v-52q-90 -11 -90 -81v-188q0 -73 -34 -102.5t-98 -29.5h-31z" />
    <glyph glyph-name="asciitilde" unicode="~" horiz-adv-x="500" 
d="M161 331q30 0 96 -35q64 -35 85 -35q44 0 81 83l34 -47q-49 -111 -116 -111q-23 0 -111 44q-48 25 -69 25q-20 0 -37.5 -16t-25 -31t-20.5 -43l-34 48q24 53 51 85.5t66 32.5z" />
    <glyph glyph-name="sterling" unicode="&#xa3;" 
d="M114 125l15 -1q20 35 20 74q0 37 -20 89h-88v39h74q-27 59 -37 81.5t-23 70t-13 87.5q0 91 49 144.5t139 53.5q69 0 110.5 -39.5t44.5 -108.5l-78 -38q4 104 -78 104q-43 0 -67 -27t-24 -70q0 -31 9 -70.5t15 -57.5t28 -72.5t23 -57.5h97v-39h-91q11 -33 11 -67
q0 -66 -25 -115q4 -2 15.5 -8.5t18.5 -10t17 -6.5t18 -3q24 0 36 34l82 -27q-32 -93 -107 -93q-35 0 -85 24t-68 24q-26 0 -34 -34l-77 31q4 35 31.5 63t61.5 26z" />
    <glyph glyph-name="currency" unicode="&#xa4;" 
d="M-16 110l39 42q-43 70 -43 148q0 84 43 151l-39 43l47 53l39 -43q59 49 139 49q68 0 131 -49l40 43l47 -53l-38 -43q42 -71 42 -156q0 -71 -42 -143l38 -42l-47 -53l-40 43q-61 -50 -139 -50q-66 0 -131 50l-39 -43zM209 481q-70 0 -113.5 -51t-43.5 -130
q0 -74 43.5 -126t107.5 -52q67 0 111.5 52t44.5 129q0 73 -43 125.5t-107 52.5z" />
    <glyph glyph-name="brokenbar" unicode="&#xa6;" horiz-adv-x="250" 
d="M90 0v340h70v-340h-70zM90 830h70v-340h-70v340z" />
    <glyph glyph-name="section" unicode="&#xa7;" horiz-adv-x="415" 
d="M234 220l16 -9q49 39 52 92q1 38 -22.5 60t-68.5 44q-6 3 -9 4l-24 12q-44 -37 -44 -85q0 -22 7.5 -40t25.5 -33.5t30 -23t37 -21.5zM370 598h-102q-2 17 -4.5 27.5t-8 24.5t-16 21t-26.5 7q-57 0 -57 -81q0 -47 24 -70t76 -43q139 -55 142 -170q2 -46 -19.5 -90
t-59.5 -69q57 -46 57 -127q0 -77 -40.5 -121.5t-117.5 -44.5q-78 0 -122 42t-44 120v19h102q0 -95 60 -95q33 0 48.5 22.5t15.5 57.5q0 24 -8 42.5t-26.5 34t-31 23.5t-38.5 23q-71 41 -88 57q-46 41 -48 117q-2 97 79 142q-60 39 -60 137q0 71 42.5 115.5t112.5 44.5
q75 0 115 -45t43 -121z" />
    <glyph glyph-name="copyright" unicode="&#xa9;" horiz-adv-x="800" 
d="M401 -10q-161 0 -274.5 113t-113.5 275q0 160 113.5 273t274.5 113t274 -113t113 -273q0 -162 -113 -275t-274 -113zM76 377q0 -138 93.5 -231t231.5 -93t231 93.5t93 230.5q0 136 -93.5 230t-230.5 94t-231 -94t-94 -230zM480 596v-54q-22 11 -39 11q-29 0 -48 -18
t-26 -52t-8.5 -55t-1.5 -54q0 -173 87 -173q18 0 36 9v-52q-20 -13 -48 -13q-139 0 -139 225q0 239 135 239q29 0 52 -13z" />
    <glyph glyph-name="guillemotleft" unicode="&#xab;" horiz-adv-x="357" 
d="M145 260l129 222l45 -27l-115 -195l104 -199l-44 -25zM26 260l129 222l45 -27l-115 -195l104 -199l-44 -25z" />
    <glyph glyph-name="logicalnot" unicode="&#xac;" horiz-adv-x="500" 
d="M387 117v197h-343v70h413v-267h-70z" />
    <glyph glyph-name="registered" unicode="&#xae;" horiz-adv-x="800" 
d="M788 378q0 -162 -113 -275t-274 -113t-274.5 113t-113.5 275q0 160 113.5 273t274.5 113t274 -113t113 -273zM725 377q0 136 -93.5 230t-230.5 94t-231 -94t-94 -230q0 -138 93.5 -231t231.5 -93t231 93.5t93 230.5zM519 151h-63l-81 221h-1v-221h-60v452h72
q17 0 28.5 -1t29 -7t28 -17.5t18.5 -34.5t8 -55q0 -25 -5 -48t-20 -44t-38 -25zM434 474q0 39 -10 58.5t-41 19.5h-9v-149q32 -2 46 16.5t14 54.5z" />
    <glyph glyph-name="degree" unicode="&#xb0;" horiz-adv-x="400" 
d="M200 754q62 0 106 -44t44 -106t-44 -106t-106 -44t-106 44t-44 106t44 106t106 44zM200 692q-36 0 -62 -26t-26 -62q0 -37 26 -62.5t62 -25.5t62 25.5t26 62.5q0 36 -26 62t-62 26z" />
    <glyph glyph-name="plusminus" unicode="&#xb1;" horiz-adv-x="500" 
d="M215 351v156h70v-156h172v-70h-172v-159h-70v159h-171v70h171zM44 2v70h413v-70h-413z" />
    <glyph glyph-name="mu" unicode="&#xb5;" horiz-adv-x="388" 
d="M251 505h94v-347q0 -30 -1 -47.5t-6.5 -43t-15.5 -40t-30.5 -25t-49.5 -10.5q-68 0 -102 66h-2v-262h-94v709h94v-315v-9q0 -23 1 -36t5.5 -32t17.5 -28t33 -9q56 0 56 80v349z" />
    <glyph glyph-name="mu" unicode="&#x3bc;" horiz-adv-x="388" 
d="M251 505h94v-347q0 -30 -1 -47.5t-6.5 -43t-15.5 -40t-30.5 -25t-49.5 -10.5q-68 0 -102 66h-2v-262h-94v709h94v-315v-9q0 -23 1 -36t5.5 -32t17.5 -28t33 -9q56 0 56 80v349z" />
    <glyph glyph-name="paragraph" unicode="&#xb6;" horiz-adv-x="440" 
d="M157 -112v482q-62 -1 -109.5 56t-47.5 134q0 89 52 146q27 30 56.5 39t74.5 9h208v-866h-79v799h-76v-799h-79zM157 -112h79h-79z" />
    <glyph glyph-name="periodcentered" unicode="&#xb7;" horiz-adv-x="205" 
d="M103 195q-25 0 -42.5 18t-17.5 43q0 24 17.5 41.5t42.5 17.5t42.5 -17.5t17.5 -41.5q0 -25 -17.5 -43t-42.5 -18z" />
    <glyph glyph-name="periodcentered" unicode="&#x2219;" horiz-adv-x="205" 
d="M103 195q-25 0 -42.5 18t-17.5 43q0 24 17.5 41.5t42.5 17.5t42.5 -17.5t17.5 -41.5q0 -25 -17.5 -43t-42.5 -18z" />
    <glyph glyph-name="guillemotright" unicode="&#xbb;" horiz-adv-x="357" 
d="M212 260l-119 -224l-44 25l104 199l-115 195l45 27zM331 260l-119 -224l-44 25l104 199l-115 195l45 27z" />
    <glyph glyph-name="divide" unicode="&#xf7;" horiz-adv-x="500" 
d="M44 221v70h413v-70h-413zM289 407h-79v100h79v-100zM289 5h-79v100h79v-100z" />
    <glyph glyph-name="florin" unicode="&#x192;" 
d="M286 508h129l-9 -74h-131l-55 -300q-1 -3 -4.5 -23t-4.5 -26.5t-5 -25t-6.5 -27.5t-7 -24.5t-8.5 -26t-10 -22.5t-12 -21q-29 -43 -82 -65t-111 -22h-24l15 84h19q40 4 65 17t44 45q23 40 38 132l53 305h-65l9 74h70l21 121q17 100 60 153.5t137 53.5q33 0 60 -7l-16 -84
q-18 7 -41 7q-54 0 -76 -38q-18 -31 -30 -96z" />
    <glyph glyph-name="Delta" unicode="&#x394;" horiz-adv-x="612" 
d="M608 0h-602l320 688zM72 49h412l-194 468z" />
    <glyph glyph-name="Delta" unicode="&#x2206;" horiz-adv-x="612" 
d="M608 0h-602l320 688zM72 49h412l-194 468z" />
    <glyph glyph-name="afii10023" unicode="&#x401;" horiz-adv-x="347" 
d="M61 754h269v-87h-169v-237h151v-87h-151v-256h169v-87h-269v754zM95 853q-24 0 -41 15.5t-17 39.5t16.5 41t41.5 17q22 0 38.5 -16.5t16.5 -38.5q0 -23 -16 -40.5t-39 -17.5zM256 853q-24 0 -41 15.5t-17 39.5t16.5 41t41.5 17q22 0 38.5 -16.5t16.5 -38.5
q0 -23 -16 -40.5t-39 -17.5z" />
    <glyph glyph-name="afii10051" unicode="&#x402;" horiz-adv-x="460" 
d="M214 0h-100v667h-118v87h331v-87h-113v-171q35 17 75 17q155 0 155 -265q0 -44 -6 -83t-21 -81t-47.5 -67t-79.5 -25q-28 0 -53 9v84q12 -5 25 -5q14 0 26 5t19.5 16.5t13 20.5t9 28t5.5 28t2.5 30.5t0.5 25.5v23q0 101 -22 136q-19 32 -56 32q-30 0 -46 -24v-401z" />
    <glyph glyph-name="afii10052" unicode="&#x403;" horiz-adv-x="342" 
d="M262 952l-99 -135l-50 29l82 149zM61 754h279v-87h-179v-667h-100v754z" />
    <glyph glyph-name="afii10053" unicode="&#x404;" horiz-adv-x="369" 
d="M348 11q-33 -21 -80 -21q-231 0 -231 375q0 399 224 399q49 0 87 -22v-91q-38 19 -64 19q-130 0 -140 -240h143v-87h-144q5 -259 145 -259q32 0 60 15v-88z" />
    <glyph glyph-name="afii10054" unicode="&#x405;" horiz-adv-x="354" 
d="M294 739l-1 -101q-44 32 -85 32q-40 0 -64.5 -28.5t-24.5 -68.5q0 -51 28 -82l76 -83q40 -44 58.5 -68t33.5 -64t15 -89q0 -83 -48 -140t-129 -57q-65 0 -110 36v101q53 -39 99 -39q44 0 66 30t22 75q0 35 -15.5 66.5t-39 54t-51 50.5t-51 54.5t-39 66.5t-15.5 86
q0 84 44 138.5t125 54.5q64 0 106 -25z" />
    <glyph glyph-name="afii10055" unicode="&#x406;" horiz-adv-x="222" 
d="M161 754v-754h-100v754h100z" />
    <glyph glyph-name="afii10056" unicode="&#x407;" horiz-adv-x="222" 
d="M161 754v-754h-100v754h100zM32 853q-24 0 -41 15.5t-17 39.5t16.5 41t41.5 17q22 0 38.5 -16.5t16.5 -38.5q0 -23 -16 -40.5t-39 -17.5zM193 853q-24 0 -41 15.5t-17 39.5t16.5 41t41.5 17q22 0 38.5 -16.5t16.5 -38.5q0 -23 -16 -40.5t-39 -17.5z" />
    <glyph glyph-name="afii10057" unicode="&#x408;" horiz-adv-x="303" 
d="M242 754v-567q0 -46 -5 -77t-19.5 -60.5t-45.5 -44.5t-78 -15q-50 0 -86 20v102q43 -26 66 -26q24 0 38.5 8.5t20.5 26.5t7.5 32t1.5 39v562h100z" />
    <glyph glyph-name="afii10058" unicode="&#x409;" horiz-adv-x="644" 
d="M412 427h53q162 0 162 -211q0 -114 -43.5 -165t-146.5 -51h-125v667h-101v-405q0 -262 -175 -262h-31v85h3q34 0 56 15.5t31.5 47t12.5 62.5t3 78v466h301v-327zM521 209q0 69 -22.5 101.5t-86.5 31.5v-257q62 -3 85.5 27.5t23.5 96.5z" />
    <glyph glyph-name="afii10059" unicode="&#x40a;" horiz-adv-x="644" 
d="M627 216q0 -114 -43.5 -165t-146.5 -51h-125v342h-151v-342h-100v754h100v-327h151v327h100v-327h53q162 0 162 -211zM521 209q0 69 -22.5 101.5t-86.5 31.5v-257q62 -3 85.5 27.5t23.5 96.5z" />
    <glyph glyph-name="afii10060" unicode="&#x40b;" horiz-adv-x="487" 
d="M447 0h-100v198q0 83 -24.5 112.5t-101.5 29.5h-7v-340h-100v667h-118v87h331v-87h-113v-243h29q115 0 159.5 -45t44.5 -162v-217z" />
    <glyph glyph-name="afii10061" unicode="&#x40c;" horiz-adv-x="424" 
d="M304 754h103l-148 -365l160 -389h-115l-143 388zM161 0h-100v754h100v-754zM315 952l-99 -135l-50 29l82 149z" />
    <glyph glyph-name="afii10062" unicode="&#x40e;" horiz-adv-x="387" 
d="M187 419h3l27 111l72 224h97l-254 -754h-100l114 313l-148 441h102l64 -222zM337 902q-8 -38 -48 -61t-93 -23t-92 22.5t-50 61.5l61 21q14 -43 81 -43t82 42z" />
    <glyph glyph-name="afii10145" unicode="&#x40f;" horiz-adv-x="473" 
d="M412 0h-123v-170h-100v170h-128v754h100v-667h151v667h100v-754z" />
    <glyph glyph-name="afii10017" unicode="&#x410;" horiz-adv-x="414" 
d="M168 754h79l162 -754h-101l-28 147h-150l-28 -147h-98zM265 225l-58 383h-2l-60 -383h120z" />
    <glyph glyph-name="afii10018" unicode="&#x411;" horiz-adv-x="404" 
d="M376 216q0 -114 -43.5 -165t-146.5 -51h-125v754h269v-87h-169v-240h53q162 0 162 -211zM270 209q0 69 -22.5 101.5t-86.5 31.5v-257q62 -3 85.5 27.5t23.5 96.5z" />
    <glyph glyph-name="afii10019" unicode="&#x412;" horiz-adv-x="418" 
d="M371 206q0 -107 -44 -156.5t-146 -49.5h-120v754h125q97 0 135.5 -50t38.5 -152q0 -42 -6.5 -72.5t-28.5 -57.5t-60 -37v-2q60 -19 83 -63t23 -114zM262 556q0 113 -89 113h-17v-247q64 -3 85 31t21 103zM265 209q0 69 -22.5 101.5t-86.5 31.5v-257q62 -3 85.5 27.5
t23.5 96.5z" />
    <glyph glyph-name="afii10020" unicode="&#x413;" horiz-adv-x="342" 
d="M61 754h279v-87h-179v-667h-100v754z" />
    <glyph glyph-name="afii10021" unicode="&#x414;" horiz-adv-x="473" 
d="M471 -170h-100v170h-268v-170h-100v257h2q49 0 78.5 69.5t29.5 168.5v429h299v-667h59v-257zM312 87v580h-99v-312q0 -213 -62 -268h161z" />
    <glyph glyph-name="afii10022" unicode="&#x415;" horiz-adv-x="347" 
d="M61 754h269v-87h-169v-237h151v-87h-151v-256h169v-87h-269v754z" />
    <glyph glyph-name="afii10024" unicode="&#x416;" horiz-adv-x="624" 
d="M261 388l-143 -388h-115l160 389l-148 365h103zM619 0h-115l-143 388l143 366h103l-148 -365zM361 0h-100v754h100v-754z" />
    <glyph glyph-name="afii10025" unicode="&#x417;" horiz-adv-x="400" 
d="M364 222q0 -90 -54 -161t-146 -71q-75 0 -127 37v123q19 -19 32.5 -30t37.5 -21.5t51 -10.5q51 0 75.5 39.5t24.5 96.5q0 78 -21.5 110.5t-93.5 32.5h-20v91h12q67 0 87.5 25.5t20.5 95.5q0 91 -88 91q-55 0 -104 -55v114q51 35 120 35q86 0 132 -49.5t46 -129.5
q0 -118 -72 -168q87 -51 87 -195z" />
    <glyph glyph-name="afii10026" unicode="&#x418;" horiz-adv-x="473" 
d="M412 0h-96v299l14 214h-2l-191 -513h-76v754h96v-307l-17 -224h2l197 531h73v-754z" />
    <glyph glyph-name="afii10027" unicode="&#x419;" horiz-adv-x="473" 
d="M242 814q-53 0 -93 24t-51 64l64 22q15 -46 80 -46q26 0 49.5 11t31.5 34l62 -21q-8 -39 -49 -63.5t-94 -24.5zM412 0h-96v299l14 214h-2l-191 -513h-76v754h96v-307l-17 -224h2l197 531h73v-754z" />
    <glyph glyph-name="afii10028" unicode="&#x41a;" horiz-adv-x="424" 
d="M304 754h103l-148 -365l160 -389h-115l-143 388zM161 0h-100v754h100v-754z" />
    <glyph glyph-name="afii10029" unicode="&#x41b;" horiz-adv-x="473" 
d="M412 0h-100v667h-101v-405q0 -262 -175 -262h-31v85h3q34 0 56 15.5t31.5 47t12.5 62.5t3 78v466h301v-754z" />
    <glyph glyph-name="afii10030" unicode="&#x41c;" horiz-adv-x="561" 
d="M86 754h86l107 -544h2l3 31l30 181l65 332h88l70 -754h-98l-18 281l-6 140l-2 99h-2l-17 -108l-78 -412h-69l-97 520h-2l-29 -520h-95z" />
    <glyph glyph-name="afii10031" unicode="&#x41d;" horiz-adv-x="473" 
d="M61 754h100v-294h151v294h100v-754h-100v373h-151v-373h-100v754z" />
    <glyph glyph-name="afii10032" unicode="&#x41e;" horiz-adv-x="476" 
d="M238 764q40 0 72 -15t52 -37t34.5 -58.5t21.5 -66.5t11 -75t4.5 -70t0.5 -65t-0.5 -65t-4.5 -70t-11 -75t-21.5 -66.5t-34.5 -58.5t-52 -37t-72 -15t-72 15t-52 37t-34.5 58.5t-21.5 66.5t-11 75t-4.5 70t-0.5 65t0.5 65t4.5 70t11 75t21.5 66.5t34.5 58.5t52 37t72 15z
M238 670q-54 0 -72 -75.5t-18 -217.5t18 -217.5t72 -75.5t72 75.5t18 217.5t-18 217.5t-72 75.5z" />
    <glyph glyph-name="afii10033" unicode="&#x41f;" horiz-adv-x="473" 
d="M61 754h351v-754h-100v667h-151v-667h-100v754z" />
    <glyph glyph-name="afii10034" unicode="&#x420;" horiz-adv-x="388" 
d="M161 0h-100v754h120q33 0 54.5 -2t51 -13.5t47 -31.5t30.5 -59.5t13 -95.5q0 -117 -50.5 -169.5t-165.5 -48.5v-334zM175 669h-14v-250q62 -4 86 27t24 98q0 125 -96 125z" />
    <glyph glyph-name="afii10035" unicode="&#x421;" horiz-adv-x="369" 
d="M353 742v-91q-38 19 -64 19q-33 0 -58.5 -14.5t-40.5 -43t-24 -55.5t-12.5 -67t-4.5 -62t-1 -56q0 -288 145 -288q31 0 60 15v-88q-33 -21 -80 -21q-231 0 -231 375q0 399 224 399q49 0 87 -22z" />
    <glyph glyph-name="afii10036" unicode="&#x422;" horiz-adv-x="323" 
d="M-4 754h331v-87h-113v-667h-100v667h-118v87z" />
    <glyph glyph-name="afii10037" unicode="&#x423;" horiz-adv-x="400" 
d="M196 419h3l27 111l72 224h97l-254 -754h-100l114 313l-148 441h102l64 -222z" />
    <glyph glyph-name="afii10038" unicode="&#x424;" horiz-adv-x="510" 
d="M480 395q0 -157 -37.5 -238t-139.5 -87v-70h-96v70q-102 6 -139.5 87t-37.5 238q0 50 3.5 88.5t14.5 80.5t29.5 70t51.5 48t78 24v48h96v-48q45 -4 78 -24t51.5 -48t29.5 -70t14.5 -80.5t3.5 -88.5zM374 401q0 111 -14 153q-18 49 -57 61v-455q47 9 59 61.5t12 179.5z
M207 160v455q-17 -5 -30 -16t-20.5 -29.5t-12 -34.5t-6 -42.5t-2 -40t-0.5 -40.5v-11q0 -127 12 -179.5t59 -61.5z" />
    <glyph glyph-name="afii10039" unicode="&#x425;" horiz-adv-x="427" 
d="M33 754h99l48 -134q32 -89 40 -138h2l27 104l53 168h102l-139 -371l139 -383h-102l-46 132q-35 102 -41 150h-2q-1 -31 -19 -87l-62 -195h-108l143 383z" />
    <glyph glyph-name="afii10040" unicode="&#x426;" horiz-adv-x="473" 
d="M471 -170h-100v170h-310v754h100v-667h151v667h100v-667h59v-257z" />
    <glyph glyph-name="afii10041" unicode="&#x427;" horiz-adv-x="438" 
d="M377 0h-100v330h-29q-115 0 -159.5 45t-44.5 162v217h100v-198q0 -83 24.5 -112.5t101.5 -29.5h7v340h100v-754z" />
    <glyph glyph-name="afii10042" unicode="&#x428;" horiz-adv-x="652" 
d="M593 0h-532v754h100v-667h116v667h100v-667h116v667h100v-754z" />
    <glyph glyph-name="afii10043" unicode="&#x429;" horiz-adv-x="652" 
d="M61 0v754h100v-667h116v667h100v-667h116v667h100v-667h59v-257h-100v170h-491z" />
    <glyph glyph-name="afii10044" unicode="&#x42a;" horiz-adv-x="400" 
d="M426 216q0 -114 -43.5 -165t-146.5 -51h-125v667h-115v87h215v-327h53q162 0 162 -211zM320 209q0 69 -22.5 101.5t-86.5 31.5v-257q62 -3 85.5 27.5t23.5 96.5z" />
    <glyph glyph-name="afii10045" unicode="&#x42b;" horiz-adv-x="580" 
d="M519 0h-100v754h100v-754zM376 216q0 -114 -43.5 -165t-146.5 -51h-125v754h100v-327h53q162 0 162 -211zM270 209q0 69 -22.5 101.5t-86.5 31.5v-257q62 -3 85.5 27.5t23.5 96.5z" />
    <glyph glyph-name="afii10046" unicode="&#x42c;" horiz-adv-x="400" 
d="M376 216q0 -114 -43.5 -165t-146.5 -51h-125v754h100v-327h53q162 0 162 -211zM270 209q0 69 -22.5 101.5t-86.5 31.5v-257q62 -3 85.5 27.5t23.5 96.5z" />
    <glyph glyph-name="afii10047" unicode="&#x42d;" horiz-adv-x="369" 
d="M334 365q0 -375 -231 -375q-47 0 -80 21v88q29 -15 60 -15q140 0 145 259h-144v87h143q-10 240 -140 240q-26 0 -64 -19v91q38 22 87 22q224 0 224 -399z" />
    <glyph glyph-name="afii10048" unicode="&#x42e;" horiz-adv-x="650" 
d="M608 377q0 -40 -0.5 -65t-4.5 -70t-11 -75t-21.5 -66.5t-34.5 -58.5t-52 -37t-72 -15q-37 0 -67 12.5t-50 32.5t-34.5 50.5t-23 59.5t-13 67.5t-6 66.5t-2.5 64h-55v-343h-100v754h100v-324h55q1 49 5 89t16.5 88t32.5 80.5t56.5 54.5t85.5 22q40 0 72 -15t52 -37
t34.5 -58.5t21.5 -66.5t11 -75t4.5 -70t0.5 -65zM502 377q0 142 -18 217.5t-72 75.5t-72 -75.5t-18 -217.5t18 -217.5t72 -75.5t72 75.5t18 217.5z" />
    <glyph glyph-name="afii10049" unicode="&#x42f;" horiz-adv-x="416" 
d="M356 0h-100v369h-2l-136 -369h-104l139 367q-39 7 -63.5 42t-32.5 73t-8 79q0 54 13.5 92.5t30.5 57.5t46.5 29.5t48.5 12t48 1.5h120v-754zM256 420v249h-16q-52 0 -68.5 -33t-16.5 -97q0 -126 101 -119z" />
    <glyph glyph-name="afii10065" unicode="&#x430;" horiz-adv-x="380" 
d="M187 76q60 0 59 170v7q0 125 -27 159q-13 17 -32 17q-11 0 -20.5 -4.5t-15.5 -13.5t-11 -18.5t-7.5 -24t-4.5 -25t-2.5 -27t-0.5 -24.5v-22.5v-16.5v-16.5v-23t0.5 -25t2.5 -27t4.5 -25t7.5 -24t11 -18.5t15.5 -13.5t20.5 -4.5zM243 0v65h-2q-16 -37 -36 -55t-57 -18
q-28 0 -49.5 13.5t-33.5 38.5t-20 50t-11 60t-4 55.5t-1 49.5q0 35 1 60t7.5 65t18.5 65t36.5 44.5t58.5 19.5q61 0 90 -64h2v56h94v-505h-94z" />
    <glyph glyph-name="afii10066" unicode="&#x431;" horiz-adv-x="375" 
d="M347 251q0 -38 -2.5 -68.5t-12 -68t-26 -62.5t-47 -42.5t-71.5 -17.5q-123 0 -150 149q-9 50 -9 173q0 148 33.5 257t80.5 160q10 11 36 30.5t41 36t15 32.5h106q-2 -27 -15 -48t-27.5 -33t-44 -33t-48.5 -37q-65 -55 -96 -212h3q10 12 33 25t56 13q47 0 77.5 -23
t44.5 -64.5t18.5 -79t4.5 -87.5zM251 251v16.5v22t-0.5 24.5t-2 27t-4.5 25.5t-8 24t-11 18.5t-15.5 13.5t-21.5 4.5t-21.5 -4.5t-15.5 -13.5t-11 -18.5t-8 -24t-4.5 -25.5t-2 -27t-0.5 -24.5v-22v-16.5v-15v-21.5t0.5 -24t2 -26.5t4.5 -25.5t8 -24t11 -18.5t15.5 -13.5
t21.5 -4.5t21.5 4.5t15.5 13.5t11 18.5t8 24t4.5 25.5t2 26.5t0.5 24v21.5v15z" />
    <glyph glyph-name="afii10067" unicode="&#x432;" horiz-adv-x="356" 
d="M329 148q0 -64 -38.5 -106t-105.5 -42h-141v505h136q67 0 98 -34t31 -90q0 -58 -42 -96q62 -36 62 -137zM215 369q0 59 -43 59h-34v-118h8q38 0 53.5 13.5t15.5 45.5zM233 156q0 79 -71 79h-24v-158h39q28 0 42 25t14 54z" />
    <glyph glyph-name="afii10068" unicode="&#x433;" horiz-adv-x="266" 
d="M264 505v-84h-126v-421h-94v505h220z" />
    <glyph glyph-name="afii10069" unicode="&#x434;" horiz-adv-x="400" 
d="M400 -156h-94v156h-219v-156h-94v240q47 0 75 62.5t28 135.5v223h252v-421h52v-240zM254 84v337h-64v-109q0 -75 -14.5 -138.5t-44.5 -89.5h123z" />
    <glyph glyph-name="afii10070" unicode="&#x435;" horiz-adv-x="361" 
d="M125 301h112q0 128 -57 128q-20 0 -32 -11.5t-16.5 -34.5t-5.5 -37t-1 -38v-7zM333 234h-208q0 -158 59 -158t59 94h87q0 -77 -36 -127.5t-111 -50.5q-40 0 -70 17t-45.5 42t-24.5 62t-11.5 67.5t-2.5 68.5q0 31 1.5 56t6.5 57.5t15.5 57.5t26.5 47t42 34t59 12
q153 0 153 -264v-15z" />
    <glyph glyph-name="afii10072" unicode="&#x436;" horiz-adv-x="583" 
d="M579 0h-109l-130 264h-2v-264h-94v264h-2l-130 -264h-109l146 271l-129 234h105l117 -234h2v234h94v-234h2l117 234h105l-129 -234z" />
    <glyph glyph-name="afii10073" unicode="&#x437;" horiz-adv-x="300" 
d="M280 149q0 -63 -41 -110t-105 -47q-66 0 -107 33v88h2q24 -37 92 -37q31 0 50.5 26t19.5 54q0 38 -23 59.5t-62 21.5h-33v81h17q43 0 63 16t20 57q0 21 -13 35t-38 14q-51 0 -84 -46h-1v95q10 12 38 22.5t62 10.5q63 0 92 -35.5t29 -91.5q0 -33 -13 -64.5t-38 -46.5
q31 -15 52 -52t21 -83z" />
    <glyph glyph-name="afii10074" unicode="&#x438;" horiz-adv-x="388" 
d="M108 0h-64v505h94v-127l-10 -198h2l151 325h64v-505h-94v122l10 195h-2z" />
    <glyph glyph-name="afii10075" unicode="&#x439;" horiz-adv-x="388" 
d="M201 607q-51 0 -88 22t-48 61l62 21q15 -43 74 -43t74 42l60 -20q-8 -38 -46 -60.5t-88 -22.5zM108 0h-64v505h94v-127l-10 -198h2l151 325h64v-505h-94v122l10 195h-2z" />
    <glyph glyph-name="afii10076" unicode="&#x43a;" horiz-adv-x="395" 
d="M44 505h94v-234h2l117 234h105l-129 -234l146 -271h-109l-130 264h-2v-264h-94v505z" />
    <glyph glyph-name="afii10077" unicode="&#x43b;" horiz-adv-x="388" 
d="M345 0h-94v421h-83v-274q0 -68 -37 -107.5t-91 -39.5h-32v81h2q64 0 64 85v339h271v-505z" />
    <glyph glyph-name="afii10078" unicode="&#x43c;" horiz-adv-x="467" 
d="M329 349h-2l-60 -349h-63l-60 349h-2l-10 -123l-30 -226h-96l95 505h73l50 -256l11 -121h2l12 119l49 258h72l91 -505h-96l-27 226z" />
    <glyph glyph-name="afii10079" unicode="&#x43d;" horiz-adv-x="388" 
d="M138 232v-232h-94v505h94v-189h113v189h94v-505h-94v232h-113z" />
    <glyph glyph-name="afii10080" unicode="&#x43e;" horiz-adv-x="375" 
d="M188 -8q-41 0 -71.5 17.5t-47 42.5t-26 62.5t-12 68t-2.5 68.5q0 39 2.5 70t12 69t26 63t47 42.5t71.5 17.5t71.5 -17.5t47 -42.5t26 -63t12 -69t2.5 -70q0 -38 -2.5 -68.5t-12 -68t-26 -62.5t-47 -42.5t-71.5 -17.5zM188 78q12 0 21.5 4.5t15.5 13.5t11 18.5t8 24
t4.5 25.5t2 26.5t0.5 24v21.5v15v16.5v22t-0.5 24.5t-2 27t-4.5 25.5t-8 24t-11 18.5t-15.5 13.5t-21.5 4.5t-21.5 -4.5t-15.5 -13.5t-11 -18.5t-8 -24t-4.5 -25.5t-2 -27t-0.5 -24.5v-22v-16.5v-15v-21.5t0.5 -24t2 -26.5t4.5 -25.5t8 -24t11 -18.5t15.5 -13.5t21.5 -4.5z
" />
    <glyph glyph-name="afii10081" unicode="&#x43f;" horiz-adv-x="388" 
d="M138 421v-421h-94v505h301v-505h-94v421h-113z" />
    <glyph glyph-name="afii10082" unicode="&#x440;" horiz-adv-x="380" 
d="M193 76q39 0 50.5 46.5t11.5 129.5v16.5v22.5t-0.5 24.5t-2.5 27.5t-4.5 25.5t-7.5 24t-11 18.5t-15.5 13.5t-20.5 4.5q-60 0 -59 -170v-7q0 -125 27 -159q13 -17 32 -17zM137 505v-65h2q15 36 36 54.5t57 18.5q24 0 43.5 -11t31.5 -27t21 -41.5t13 -47t6.5 -51.5t3 -47
t0.5 -41q0 -35 -1 -60t-7.5 -65t-18.5 -65.5t-36.5 -45t-58.5 -19.5q-35 0 -55 16t-35 49h-2v-264h-94v712h94z" />
    <glyph glyph-name="afii10083" unicode="&#x441;" horiz-adv-x="278" 
d="M254 496v-95h-2q-16 24 -44 24q-83 0 -83 -168q0 -177 81 -177q22 0 48 19v-87q-34 -20 -76 -20q-149 0 -149 256q0 31 1.5 56.5t6.5 58t15.5 57.5t26 47t41.5 34t59 12q40 0 75 -17z" />
    <glyph glyph-name="afii10084" unicode="&#x442;" horiz-adv-x="280" 
d="M273 505v-84h-86v-421h-94v421h-86v84h266z" />
    <glyph glyph-name="afii10085" unicode="&#x443;" horiz-adv-x="373" 
d="M4 505h105l74 -352h2l85 352h95l-206 -712h-99l78 248z" />
    <glyph glyph-name="afii10086" unicode="&#x444;" horiz-adv-x="471" 
d="M443 255q0 -136 -37 -194t-126 -69v-199h-88v198q-89 11 -126 69.5t-37 194.5q0 133 40 190.5t123 67.5v317h88v-317q83 -10 123 -67.5t40 -190.5zM349 260q0 74 -16 114t-53 55v-355q36 14 52.5 55.5t16.5 130.5zM192 74v355q-37 -14 -53 -54t-16 -115q0 -90 16.5 -131
t52.5 -55z" />
    <glyph glyph-name="afii10087" unicode="&#x445;" horiz-adv-x="375" 
d="M187 199l-15 -56l-60 -143h-105l129 268l-122 237h105l68 -171l69 171h105l-126 -237l131 -268h-103l-61 143z" />
    <glyph glyph-name="afii10088" unicode="&#x446;" horiz-adv-x="397" 
d="M303 0h-259v505h94v-421h113v421h94v-421h52v-240h-94v156z" />
    <glyph glyph-name="afii10089" unicode="&#x447;" horiz-adv-x="359" 
d="M316 0h-94v210h-41q-75 0 -114.5 44.5t-39.5 132.5v118h94v-123q0 -45 13.5 -67.5t47.5 -22.5h40v213h94v-505z" />
    <glyph glyph-name="afii10090" unicode="&#x448;" horiz-adv-x="577" 
d="M532 0h-488v505h94v-421h103v421h94v-421h103v421h94v-505z" />
    <glyph glyph-name="afii10091" unicode="&#x449;" horiz-adv-x="584" 
d="M584 -156h-94v156h-446v505h94v-421h103v421h94v-421h103v421h94v-421h52v-240z" />
    <glyph glyph-name="afii10092" unicode="&#x44a;" horiz-adv-x="387" 
d="M270 160q0 76 -63 76h-24v-152h25q62 0 62 76zM89 421h-86v84h180v-185h40q73 0 107 -44.5t34 -111.5q0 -66 -35.5 -115t-110.5 -49h-129v421z" />
    <glyph glyph-name="afii10093" unicode="&#x44b;" horiz-adv-x="493" 
d="M319 164q0 -66 -35.5 -115t-110.5 -49h-129v505h94v-185h40q73 0 107 -44.5t34 -111.5zM225 160q0 76 -63 76h-24v-152h25q62 0 62 76zM356 505h94v-505h-94v505z" />
    <glyph glyph-name="afii10094" unicode="&#x44c;" horiz-adv-x="342" 
d="M319 164q0 -66 -35.5 -115t-110.5 -49h-129v505h94v-185h40q73 0 107 -44.5t34 -111.5zM225 160q0 76 -63 76h-24v-152h25q62 0 62 76z" />
    <glyph glyph-name="afii10095" unicode="&#x44d;" horiz-adv-x="278" 
d="M250 248q0 -256 -149 -256q-42 0 -76 20v87q26 -19 48 -19q76 0 81 149h-89v77h87q-9 119 -81 119q-28 0 -44 -24h-2v95q35 17 75 17q33 0 59 -12t41.5 -34t26 -47t15.5 -57.5t6.5 -58t1.5 -56.5z" />
    <glyph glyph-name="afii10096" unicode="&#x44e;" horiz-adv-x="525" 
d="M497 251q0 -38 -2.5 -68.5t-12 -68t-26 -62.5t-47 -42.5t-71.5 -17.5q-149 0 -158 222h-42v-214h-94v505h94v-213h42q9 221 158 221q41 0 71.5 -17.5t47 -42.5t26 -63t12 -69t2.5 -70zM401 251v16.5v22t-0.5 24.5t-2 27t-4.5 25.5t-8 24t-11 18.5t-15.5 13.5t-21.5 4.5
t-21.5 -4.5t-15.5 -13.5t-11 -18.5t-8 -24t-4.5 -25.5t-2 -27t-0.5 -24.5v-22v-16.5v-15v-21.5t0.5 -24t2 -26.5t4.5 -25.5t8 -24t11 -18.5t15.5 -13.5t21.5 -4.5t21.5 4.5t15.5 13.5t11 18.5t8 24t4.5 25.5t2 26.5t0.5 24v21.5v15z" />
    <glyph glyph-name="afii10097" unicode="&#x44f;" horiz-adv-x="370" 
d="M327 0h-94v219h-6l-116 -219h-111l135 227q-35 11 -62.5 49t-27.5 92q0 58 45 97.5t112 39.5h125v-505zM233 279v148h-30q-26 0 -45 -20.5t-19 -49.5q0 -78 70 -78h24z" />
    <glyph glyph-name="afii10071" unicode="&#x451;" horiz-adv-x="361" 
d="M125 301h112q0 128 -57 128q-20 0 -32 -11.5t-16.5 -34.5t-5.5 -37t-1 -38v-7zM333 234h-208q0 -158 59 -158t59 94h87q0 -77 -36 -127.5t-111 -50.5q-40 0 -70 17t-45.5 42t-24.5 62t-11.5 67.5t-2.5 68.5q0 31 1.5 56t6.5 57.5t15.5 57.5t26.5 47t42 34t59 12
q153 0 153 -264v-15zM102 604q-24 0 -41 15.5t-17 39.5t16.5 41t41.5 17q22 0 38.5 -16.5t16.5 -38.5q0 -23 -16 -40.5t-39 -17.5zM263 604q-24 0 -41 15.5t-17 39.5t16.5 41t41.5 17q22 0 38.5 -16.5t16.5 -38.5q0 -23 -16 -40.5t-39 -17.5z" />
    <glyph glyph-name="afii10099" unicode="&#x452;" horiz-adv-x="378" 
d="M251 240v109q0 80 -56 80q-20 0 -33 -9t-17.5 -28.5t-5.5 -32t-1 -35.5v-9v-315h-94v571h-38v74h38v185h94v-185h87v-74h-87v-124h2q34 66 102 66q29 0 49.5 -10.5t30.5 -25t15.5 -40t6.5 -43t1 -47.5v-95q0 -143 -30.5 -269.5t-75.5 -189.5h-102q45 56 79.5 186.5
t34.5 260.5z" />
    <glyph glyph-name="afii10100" unicode="&#x453;" horiz-adv-x="266" 
d="M264 505v-84h-126v-421h-94v505h220zM227 700l-99 -135l-50 29l82 149z" />
    <glyph glyph-name="afii10101" unicode="&#x454;" horiz-adv-x="278" 
d="M258 12q-34 -20 -76 -20q-149 0 -149 256q0 31 1.5 56.5t6.5 58t15.5 57.5t26 47t41.5 34t59 12q40 0 75 -17v-95h-2q-16 24 -44 24q-72 0 -81 -119h87v-77h-89q5 -149 81 -149q22 0 48 19v-87z" />
    <glyph glyph-name="afii10102" unicode="&#x455;" horiz-adv-x="276" 
d="M234 491v-89q-30 27 -70 27q-27 0 -46 -14.5t-18 -39.5q0 -23 16.5 -42.5t39.5 -35.5t46.5 -34.5t39.5 -49.5t16 -71q0 -67 -39 -108.5t-106 -41.5q-42 0 -82 24v92q40 -32 78 -32q30 0 46.5 17t16.5 47q0 24 -16.5 44.5t-39.5 37t-46 35.5t-39.5 49t-16.5 69
q0 60 37.5 99t97.5 39q48 0 85 -22z" />
    <glyph glyph-name="afii10103" unicode="&#x456;" horiz-adv-x="180" 
d="M137 505v-505h-94v505h94zM91 595q-26 0 -44.5 18.5t-18.5 44.5t18.5 44t44.5 18q25 0 43.5 -18.5t18.5 -43.5q0 -26 -18.5 -44.5t-43.5 -18.5z" />
    <glyph glyph-name="afii10104" unicode="&#x457;" horiz-adv-x="180" 
d="M43 505h94v-505h-94v505zM11 604q-24 0 -41 15.5t-17 39.5t16.5 41t41.5 17q22 0 38.5 -16.5t16.5 -38.5q0 -23 -16 -40.5t-39 -17.5zM172 604q-24 0 -41 15.5t-17 39.5t16.5 41t41.5 17q22 0 38.5 -16.5t16.5 -38.5q0 -23 -16 -40.5t-39 -17.5z" />
    <glyph glyph-name="afii10105" unicode="&#x458;" horiz-adv-x="180" 
d="M137 505v-712h-94v712h94zM91 595q-26 1 -44.5 19t-18.5 44t18.5 44.5t44.5 17.5q25 0 43.5 -19t18.5 -44q0 -26 -18.5 -44t-43.5 -18z" />
    <glyph glyph-name="afii10106" unicode="&#x459;" horiz-adv-x="546" 
d="M526 162q0 -66 -35.5 -114t-110.5 -48h-129v421h-83v-274q0 -68 -37 -107.5t-91 -39.5h-32v81h2q64 0 64 85v339h271v-189h40q73 0 107 -44t34 -110zM432 158q0 74 -63 74h-24v-148h25q62 0 62 74z" />
    <glyph glyph-name="afii10107" unicode="&#x45a;" horiz-adv-x="546" 
d="M526 162q0 -66 -35.5 -114t-110.5 -48h-129v232h-113v-232h-94v505h94v-189h113v189h94v-189h40q73 0 107 -44t34 -110zM432 158q0 74 -63 74h-24v-148h25q62 0 62 74z" />
    <glyph glyph-name="afii10108" unicode="&#x45b;" horiz-adv-x="388" 
d="M345 0h-94v349q0 80 -56 80q-20 0 -33 -9t-17.5 -28.5t-5.5 -32t-1 -35.5v-9v-315h-94v571h-38v74h38v185h94v-185h87v-74h-87v-124h2q34 66 102 66q29 0 49.5 -10.5t30.5 -25t15.5 -40t6.5 -43t1 -47.5v-347z" />
    <glyph glyph-name="afii10109" unicode="&#x45c;" horiz-adv-x="395" 
d="M44 505h94v-234h2l117 234h105l-129 -234l146 -271h-109l-130 258h-2v-258h-94v505zM287 700l-99 -135l-50 29l82 149z" />
    <glyph glyph-name="afii10110" unicode="&#x45e;" horiz-adv-x="373" 
d="M4 505h105l74 -352h2l85 352h95l-206 -712h-99l78 248zM190 607q-51 0 -88 22t-48 61l62 21q15 -43 74 -43t74 42l60 -20q-8 -38 -46 -60.5t-88 -22.5z" />
    <glyph glyph-name="afii10193" unicode="&#x45f;" horiz-adv-x="388" 
d="M345 0h-103v-156h-94v156h-104v505h94v-421h113v421h94v-505z" />
    <glyph glyph-name="afii10050" unicode="&#x490;" horiz-adv-x="342" 
d="M340 667h-179v-667h-100v754h179v170h100v-257z" />
    <glyph glyph-name="afii10098" unicode="&#x491;" horiz-adv-x="266" 
d="M264 421h-126v-421h-94v505h126v156h94v-240z" />
    <glyph glyph-name="endash" unicode="&#x2013;" horiz-adv-x="500" 
d="M0 296h500v-74h-500v74z" />
    <glyph glyph-name="emdash" unicode="&#x2014;" horiz-adv-x="1000" 
d="M0 296h1000v-74h-1000v74z" />
    <glyph glyph-name="quoteleft" unicode="&#x2018;" horiz-adv-x="213" 
d="M108 474l-81 24l96 266l52 -15z" />
    <glyph glyph-name="quoteright" unicode="&#x2019;" horiz-adv-x="213" 
d="M105 764l81 -24l-97 -265l-51 14z" />
    <glyph glyph-name="quotesinglbase" unicode="&#x201a;" horiz-adv-x="213" 
d="M105 106l81 -25l-97 -265l-51 14z" />
    <glyph glyph-name="quotedblleft" unicode="&#x201c;" horiz-adv-x="344" 
d="M239 474l-81 24l96 266l52 -15zM102 474l-81 24l96 266l52 -15z" />
    <glyph glyph-name="quotedblright" unicode="&#x201d;" horiz-adv-x="344" 
d="M105 764l81 -24l-97 -265l-51 14zM242 764l81 -24l-97 -265l-51 14z" />
    <glyph glyph-name="quotedblbase" unicode="&#x201e;" horiz-adv-x="344" 
d="M105 106l81 -25l-97 -265l-51 14zM242 106l81 -25l-97 -265l-51 14z" />
    <glyph glyph-name="dagger" unicode="&#x2020;" horiz-adv-x="359" 
d="M133 754h94v-249h103v-82h-103v-560h-94v560h-104v82h104v249z" />
    <glyph glyph-name="daggerdbl" unicode="&#x2021;" horiz-adv-x="359" 
d="M133 754h94v-229h103v-82h-103v-184h103v-82h-103v-314h-94v314h-104v82h104v184h-104v82h104v229z" />
    <glyph glyph-name="bullet" unicode="&#x2022;" horiz-adv-x="400" 
d="M12 377q0 78 54.5 133.5t132.5 55.5q79 0 134.5 -55.5t55.5 -133.5q0 -77 -55.5 -132.5t-134.5 -55.5q-78 0 -132.5 55.5t-54.5 132.5z" />
    <glyph glyph-name="ellipsis" unicode="&#x2026;" horiz-adv-x="1000" 
d="M167 -10q-25 0 -42.5 18t-17.5 43q0 24 17.5 41.5t42.5 17.5t42.5 -17.5t17.5 -41.5q0 -25 -17.5 -43t-42.5 -18zM500 -10q-25 0 -42.5 18t-17.5 43q0 24 17.5 41.5t42.5 17.5t42.5 -17.5t17.5 -41.5q0 -25 -17.5 -43t-42.5 -18zM833 -10q-25 0 -42.5 18t-17.5 43
q0 24 17.5 41.5t42.5 17.5t42.5 -17.5t17.5 -41.5q0 -25 -17.5 -43t-42.5 -18z" />
    <glyph glyph-name="perthousand" unicode="&#x2030;" horiz-adv-x="817" 
d="M149 405q-35 0 -58 16.5t-33 47t-13 56t-3 59.5t3 60t13 56t33 46.5t58 16.5t58 -16.5t33 -46.5t13 -56t3 -60t-3 -59.5t-13 -56t-33 -47t-58 -16.5zM149 465q7 0 13 3t10 9t7 12.5t5 16.5t3 17.5t1.5 18.5t0.5 16.5v15v10.5v10.5v15t-0.5 16.5t-1.5 18t-3 17t-5 16.5
t-7 13t-10 9.5t-13 3t-13 -3t-10 -9.5t-7 -13t-5 -16.5t-3 -17t-1.5 -18t-0.5 -16.5v-15v-10.5v-10.5v-15t0.5 -16.5t1.5 -18.5t3 -17.5t5 -16.5t7 -12.5t10 -9t13 -3zM432 754h62l-374 -754h-62zM403 349q35 0 58 -16.5t33 -46.5t13 -56t3 -60t-3 -59.5t-13 -56t-33 -47
t-58 -16.5t-58 16.5t-33 47t-13 56t-3 59.5t3 60t13 56t33 46.5t58 16.5zM403 51q7 0 13 3t10 9t7 12.5t5 16.5t3 17.5t1.5 18.5t0.5 16.5v15v10.5v10.5v15t-0.5 16.5t-1.5 18t-3 17t-5 16.5t-7 13t-10 9.5t-13 3t-13 -3t-10 -9.5t-7 -13t-5 -16.5t-3 -17t-1.5 -18
t-0.5 -16.5v-15v-10.5v-10.5v-15t0.5 -16.5t1.5 -18.5t3 -17.5t5 -16.5t7 -12.5t10 -9t13 -3zM667 349q35 0 58 -16.5t33 -46.5t13 -56t3 -60t-3 -59.5t-13 -56t-33 -47t-58 -16.5t-58 16.5t-33 47t-13 56t-3 59.5t3 60t13 56t33 46.5t58 16.5zM667 51q7 0 13 3t10 9t7 12.5
t5 16.5t3 17.5t1.5 18.5t0.5 16.5v15v10.5v10.5v15t-0.5 16.5t-1.5 18t-3 17t-5 16.5t-7 13t-10 9.5t-13 3t-13 -3t-10 -9.5t-7 -13t-5 -16.5t-3 -17t-1.5 -18t-0.5 -16.5v-15v-10.5v-10.5v-15t0.5 -16.5t1.5 -18.5t3 -17.5t5 -16.5t7 -12.5t10 -9t13 -3z" />
    <glyph glyph-name="guilsinglleft" unicode="&#x2039;" horiz-adv-x="238" 
d="M26 260l129 222l45 -27l-115 -195l104 -199l-44 -25z" />
    <glyph glyph-name="guilsinglright" unicode="&#x203a;" horiz-adv-x="238" 
d="M212 260l-119 -224l-44 25l104 199l-115 195l45 27z" />
    <glyph glyph-name="Euro" unicode="&#x20ac;" 
d="M378 733v-99q-32 34 -94 34q-100 0 -111 -171h177l-20 -81h-164v-36v-37h145l-21 -81h-117q12 -176 111 -176q61 0 94 35v-102q-31 -27 -110 -27q-164 0 -188 270h-62l21 81h34q-1 9 -1 37q0 24 1 36h-55l21 81h40q23 266 189 266q76 0 110 -30z" />
    <glyph glyph-name="afii61352" unicode="&#x2116;" horiz-adv-x="674" 
d="M140 579l6 -49l15 -253v-277h-100v754h96l176 -573l2 2l-24 302v269h100v-754h-93l-176 581zM451 59h190v-59h-190v59zM546 90q-103 0 -103 155q0 30 3 53.5t12.5 49.5t32 40.5t55.5 14.5t55.5 -14.5t32 -40.5t12.5 -49.5t3 -53.5q0 -155 -103 -155zM547 340
q-7 0 -12 -2.5t-9 -7t-6.5 -10t-4 -13t-2.5 -13.5t-1.5 -14.5t-0.5 -13.5v-12.5v-8.5v-8.5v-12t0.5 -13t1.5 -14.5t2.5 -13.5t4 -12.5t6.5 -9.5t9 -7t12 -2.5q6 0 11.5 2.5t8.5 7t6 9.5t4.5 13t2.5 13.5t1 14v13v11.5v9v9v12v13.5t-1 14.5t-2.5 13.5t-4 13t-6 10t-9 7
t-11.5 2.5z" />
    <glyph glyph-name="trademark" unicode="&#x2122;" horiz-adv-x="750" 
d="M719 754v-421h-55v361h-2l-118 -361h-32l-115 361h-2v-361h-55v421h89l98 -297h2l102 297h88zM280 754v-60h-109v-361h-61v361h-110v60h280z" />
    <glyph glyph-name="radical" unicode="&#x221a;" horiz-adv-x="549" 
d="M10 450l146 72l197 -403l127 798l35 -5l-150 -950l-243 502l-96 -47z" />
    <glyph glyph-name="infinity" unicode="&#x221e;" horiz-adv-x="713" 
d="M486 391q71 31 133 -6.5t69 -105.5q6 -59 -37.5 -109.5t-109.5 -44.5q-29 3 -55.5 12.5t-47.5 23.5t-35 26t-28.5 26.5l-17.5 17.5l-17.5 -17.5t-28.5 -26.5t-35 -26t-47.5 -23.5t-55.5 -12.5q-66 -6 -109.5 44.5t-37.5 109.5q7 68 69 105.5t133 6.5q33 -15 56.5 -32
t72.5 -62q49 45 72.5 62t56.5 32zM205 345q-58 20 -94 -12.5t-35 -73.5q1 -43 37.5 -68.5t78.5 -15.5q27 6 48 18t33.5 23t50.5 48q-80 67 -119 81zM522 175q42 -10 78.5 15.5t37.5 68.5q1 41 -35 73.5t-94 12.5q-39 -14 -119 -81q31 -30 39 -37.5t26.5 -22t32 -19.5
t34.5 -10z" />
    <glyph glyph-name="approxequal" unicode="&#x2248;" horiz-adv-x="549" 
d="M527 370q-28 -48 -80 -67.5t-98 -6.5l-150 43q-20 6 -37 7t-30.5 -3t-24 -8.5t-19.5 -13t-13.5 -13t-10.5 -13t-7 -9.5l-43 27q79 104 195 72l151 -42q33 -10 79 9q32 14 51 42zM527 219q-28 -48 -80 -67.5t-98 -6.5l-150 43q-20 6 -37 7t-30.5 -3t-24 -8.5t-19.5 -13
t-13.5 -13t-10.5 -13t-7 -9.5l-43 27q79 104 195 72l151 -42q33 -10 79 9q32 14 51 42z" />
    <glyph glyph-name="notequal" unicode="&#x2260;" horiz-adv-x="500" 
d="M457 124h-240l-62 -124h-72l62 124h-101v70h135q28 55 60 120v0v0v0h-1v0h-1v0h-1v0h-1h-1h-1h-1h-1h-1h-1h-1h-1h-1h-1h-1h-1h-1h-1h-1h-1h-1h-1h-1h-1h-1h-1h-1h-1h-1h-1h-1h-1h-1h-1h-1h-1h-1h-2h-1h-1h-1h-1h-1h-1h-1h-2h-1h-1h-1h-1h-2h-1h-1h-1h-2h-1h-1h-1h-2h-1
h-1h-2h-1h-1h-2h-1h-1h-2h-1h-2h-1h-1h-2h-1h-2h-1h-1h-2h-1h-2h-1h-2h-1h-2h-1h-2h-1h-2h-1h-2h-2h-1h-2h-1h-2h-1h-2h-2h-1h-2h-1h-2h-2h-1h-2h-2h-1h-2h-2h-1h-2h-2h-1h-2h-2h-2h-1h-2h-2h-2h-1h-2h-2h-2h-1h-2h-2h-2h-2h-1h-2h-2h-2h-2h-1h-2h-9v70h230l65 130h72
q-30 -61 -65 -130h111v-70h-146q-59 -120 -60 -120h206v-70z" />
    <glyph glyph-name="lessequal" unicode="&#x2264;" horiz-adv-x="500" 
d="M457 121l-413 232v64l413 232v-73l-335 -191l335 -191v-73zM457 -9l-413 232v76l413 -235v-73z" />
    <glyph glyph-name="greaterequal" unicode="&#x2265;" horiz-adv-x="500" 
d="M455 353l-413 -232v73l335 191l-335 191v73l413 -232v-64zM455 223l-413 -232v73l413 235v-76z" />
    <glyph glyph-name="nbspace" horiz-adv-x="500" 
 />
    <glyph glyph-name="hyphenminus" horiz-adv-x="242" 
d="M32 297h178v-76h-178v76z" />
    </font>
</defs>
</svg>
